<mxfile host="app.diagrams.net" modified="2023-10-21T05:18:53.733Z" agent="Mozilla/5.0 (Windows NT 10.0; Win64; x64) AppleWebKit/537.36 (KHTML, like Gecko) Chrome/118.0.0.0 Safari/537.36" etag="Srs4THfHs_d1VPXvZLV0" version="22.0.0" type="device">
  <diagram name="PÃ¡gina-1" id="5vkWipXI4Jd7R3DipBLy">
    <mxGraphModel dx="1195" dy="668" grid="1" gridSize="10" guides="1" tooltips="1" connect="1" arrows="1" fold="1" page="1" pageScale="1" pageWidth="827" pageHeight="1169" math="0" shadow="0">
      <root>
        <mxCell id="0" />
        <mxCell id="1" parent="0" />
        <mxCell id="yecwBfwort3IGkdsRdy6-18" style="edgeStyle=orthogonalEdgeStyle;rounded=0;orthogonalLoop=1;jettySize=auto;html=1;entryX=0.5;entryY=0;entryDx=0;entryDy=0;" edge="1" parent="1" source="yecwBfwort3IGkdsRdy6-1" target="yecwBfwort3IGkdsRdy6-16">
          <mxGeometry relative="1" as="geometry" />
        </mxCell>
        <mxCell id="yecwBfwort3IGkdsRdy6-1" value="Case 1:" style="ellipse;whiteSpace=wrap;html=1;" vertex="1" parent="1">
          <mxGeometry x="162.5" y="50" width="110" height="60" as="geometry" />
        </mxCell>
        <mxCell id="yecwBfwort3IGkdsRdy6-21" style="edgeStyle=orthogonalEdgeStyle;rounded=0;orthogonalLoop=1;jettySize=auto;html=1;entryX=0.5;entryY=0;entryDx=0;entryDy=0;" edge="1" parent="1" source="yecwBfwort3IGkdsRdy6-2" target="yecwBfwort3IGkdsRdy6-19">
          <mxGeometry relative="1" as="geometry" />
        </mxCell>
        <mxCell id="yecwBfwort3IGkdsRdy6-2" value="sumaArr(int *arr, int n)" style="ellipse;whiteSpace=wrap;html=1;" vertex="1" parent="1">
          <mxGeometry x="470" y="50" width="150" height="60" as="geometry" />
        </mxCell>
        <mxCell id="yecwBfwort3IGkdsRdy6-10" style="edgeStyle=orthogonalEdgeStyle;rounded=0;orthogonalLoop=1;jettySize=auto;html=1;entryX=0.5;entryY=0;entryDx=0;entryDy=0;" edge="1" parent="1" source="yecwBfwort3IGkdsRdy6-3" target="yecwBfwort3IGkdsRdy6-6">
          <mxGeometry relative="1" as="geometry" />
        </mxCell>
        <mxCell id="yecwBfwort3IGkdsRdy6-3" value="r = sumaArr(vect1, 5)" style="rounded=0;whiteSpace=wrap;html=1;" vertex="1" parent="1">
          <mxGeometry x="150" y="220" width="135" height="50" as="geometry" />
        </mxCell>
        <mxCell id="yecwBfwort3IGkdsRdy6-11" style="edgeStyle=orthogonalEdgeStyle;rounded=0;orthogonalLoop=1;jettySize=auto;html=1;entryX=0.5;entryY=0;entryDx=0;entryDy=0;" edge="1" parent="1" source="yecwBfwort3IGkdsRdy6-6" target="yecwBfwort3IGkdsRdy6-7">
          <mxGeometry relative="1" as="geometry" />
        </mxCell>
        <mxCell id="yecwBfwort3IGkdsRdy6-6" value="&quot;Arreglo:&quot;" style="shape=document;whiteSpace=wrap;html=1;boundedLbl=1;" vertex="1" parent="1">
          <mxGeometry x="157.5" y="300" width="120" height="50" as="geometry" />
        </mxCell>
        <mxCell id="yecwBfwort3IGkdsRdy6-12" style="edgeStyle=orthogonalEdgeStyle;rounded=0;orthogonalLoop=1;jettySize=auto;html=1;entryX=0.5;entryY=0;entryDx=0;entryDy=0;" edge="1" parent="1" source="yecwBfwort3IGkdsRdy6-7" target="yecwBfwort3IGkdsRdy6-9">
          <mxGeometry relative="1" as="geometry" />
        </mxCell>
        <mxCell id="yecwBfwort3IGkdsRdy6-7" value="imprArr(vect1, 5)" style="rounded=0;whiteSpace=wrap;html=1;" vertex="1" parent="1">
          <mxGeometry x="157.5" y="380" width="120" height="50" as="geometry" />
        </mxCell>
        <mxCell id="yecwBfwort3IGkdsRdy6-14" style="edgeStyle=orthogonalEdgeStyle;rounded=0;orthogonalLoop=1;jettySize=auto;html=1;entryX=0.5;entryY=0;entryDx=0;entryDy=0;" edge="1" parent="1" source="yecwBfwort3IGkdsRdy6-9" target="yecwBfwort3IGkdsRdy6-13">
          <mxGeometry relative="1" as="geometry" />
        </mxCell>
        <mxCell id="yecwBfwort3IGkdsRdy6-9" value="&quot;La suma de los elementos en el arreglo es: %d&quot;, r" style="shape=document;whiteSpace=wrap;html=1;boundedLbl=1;" vertex="1" parent="1">
          <mxGeometry x="132.5" y="460" width="170" height="70" as="geometry" />
        </mxCell>
        <mxCell id="yecwBfwort3IGkdsRdy6-13" value="break" style="ellipse;whiteSpace=wrap;html=1;" vertex="1" parent="1">
          <mxGeometry x="180" y="570" width="75" height="50" as="geometry" />
        </mxCell>
        <mxCell id="yecwBfwort3IGkdsRdy6-17" style="edgeStyle=orthogonalEdgeStyle;rounded=0;orthogonalLoop=1;jettySize=auto;html=1;entryX=0.5;entryY=0;entryDx=0;entryDy=0;" edge="1" parent="1" source="yecwBfwort3IGkdsRdy6-16" target="yecwBfwort3IGkdsRdy6-3">
          <mxGeometry relative="1" as="geometry" />
        </mxCell>
        <mxCell id="yecwBfwort3IGkdsRdy6-16" value="int vect1[] = {4, 7, 1, 5, 9}" style="rounded=0;whiteSpace=wrap;html=1;" vertex="1" parent="1">
          <mxGeometry x="132.5" y="140" width="170" height="40" as="geometry" />
        </mxCell>
        <mxCell id="yecwBfwort3IGkdsRdy6-23" style="edgeStyle=orthogonalEdgeStyle;rounded=0;orthogonalLoop=1;jettySize=auto;html=1;entryX=0.5;entryY=0;entryDx=0;entryDy=0;" edge="1" parent="1" source="yecwBfwort3IGkdsRdy6-19" target="yecwBfwort3IGkdsRdy6-22">
          <mxGeometry relative="1" as="geometry" />
        </mxCell>
        <mxCell id="yecwBfwort3IGkdsRdy6-19" value="int i, suma = 0" style="rounded=0;whiteSpace=wrap;html=1;" vertex="1" parent="1">
          <mxGeometry x="485" y="140" width="120" height="40" as="geometry" />
        </mxCell>
        <mxCell id="yecwBfwort3IGkdsRdy6-25" style="edgeStyle=orthogonalEdgeStyle;rounded=0;orthogonalLoop=1;jettySize=auto;html=1;entryX=0.5;entryY=0;entryDx=0;entryDy=0;" edge="1" parent="1" source="yecwBfwort3IGkdsRdy6-22" target="yecwBfwort3IGkdsRdy6-24">
          <mxGeometry relative="1" as="geometry" />
        </mxCell>
        <mxCell id="yecwBfwort3IGkdsRdy6-28" style="edgeStyle=orthogonalEdgeStyle;rounded=0;orthogonalLoop=1;jettySize=auto;html=1;entryX=0.5;entryY=0;entryDx=0;entryDy=0;" edge="1" parent="1" source="yecwBfwort3IGkdsRdy6-22" target="yecwBfwort3IGkdsRdy6-27">
          <mxGeometry relative="1" as="geometry">
            <Array as="points">
              <mxPoint x="650" y="245" />
              <mxPoint x="650" y="410" />
              <mxPoint x="545" y="410" />
            </Array>
          </mxGeometry>
        </mxCell>
        <mxCell id="yecwBfwort3IGkdsRdy6-22" value="Desde i = 0&lt;br&gt;Mientras i &amp;lt; n&lt;br&gt;Incremento i++" style="shape=hexagon;perimeter=hexagonPerimeter2;whiteSpace=wrap;html=1;fixedSize=1;" vertex="1" parent="1">
          <mxGeometry x="477.5" y="205" width="135" height="80" as="geometry" />
        </mxCell>
        <mxCell id="yecwBfwort3IGkdsRdy6-26" style="edgeStyle=orthogonalEdgeStyle;rounded=0;orthogonalLoop=1;jettySize=auto;html=1;entryX=0;entryY=0.5;entryDx=0;entryDy=0;" edge="1" parent="1" source="yecwBfwort3IGkdsRdy6-24" target="yecwBfwort3IGkdsRdy6-22">
          <mxGeometry relative="1" as="geometry">
            <Array as="points">
              <mxPoint x="545" y="390" />
              <mxPoint x="458" y="390" />
              <mxPoint x="458" y="245" />
            </Array>
          </mxGeometry>
        </mxCell>
        <mxCell id="yecwBfwort3IGkdsRdy6-24" value="suma += *(arr + i);" style="rounded=0;whiteSpace=wrap;html=1;" vertex="1" parent="1">
          <mxGeometry x="485" y="330" width="120" height="40" as="geometry" />
        </mxCell>
        <mxCell id="yecwBfwort3IGkdsRdy6-27" value="return suma" style="ellipse;whiteSpace=wrap;html=1;" vertex="1" parent="1">
          <mxGeometry x="490" y="440" width="110" height="60" as="geometry" />
        </mxCell>
      </root>
    </mxGraphModel>
  </diagram>
</mxfile>
